<?xml version="1.0" standalone="no"?>
<!DOCTYPE svg PUBLIC "-//W3C//DTD SVG 20010904//EN"
 "http://www.w3.org/TR/2001/REC-SVG-20010904/DTD/svg10.dtd">
<svg version="1.0" xmlns="http://www.w3.org/2000/svg"
 width="1440.000000pt" height="1024.000000pt" viewBox="0 0 1440.000000 1024.000000"
 preserveAspectRatio="xMidYMid meet">

<g transform="translate(0.000000,1024.000000) scale(0.100000,-0.100000)"
fill="#8abdf6" stroke="none">
<path d="M1665 7569 c-495 -18 -986 -88 -1537 -220 l-128 -31 0 -2228 c0
-2114 1 -2229 18 -2234 83 -25 1049 -220 1297 -261 83 -14 213 -37 290 -50
168 -30 612 -93 946 -134 558 -69 1214 -98 1621 -71 330 22 515 51 745 116
607 170 854 534 707 1041 -47 161 -190 442 -222 436 -57 -12 -272 -35 -372
-39 -143 -7 -325 13 -436 47 -164 51 -321 154 -410 271 -57 74 -129 223 -154
322 -25 98 -43 277 -35 338 6 45 11 50 73 94 211 147 418 348 525 510 131 198
181 349 181 549 -1 208 -51 363 -186 567 -130 196 -378 435 -588 566 -153 96
-715 267 -1075 327 -449 74 -827 100 -1260 84z"/>
</g>
</svg>
