<?xml version="1.0" standalone="no"?>
<!DOCTYPE svg PUBLIC "-//W3C//DTD SVG 20010904//EN"
 "http://www.w3.org/TR/2001/REC-SVG-20010904/DTD/svg10.dtd">
<svg version="1.0" xmlns="http://www.w3.org/2000/svg"
 width="1440.000000pt" height="1024.000000pt" viewBox="0 0 1440.000000 1024.000000"
 preserveAspectRatio="xMidYMid meet">

<g transform="translate(0.000000,1024.000000) scale(0.100000,-0.100000)"
fill="#000000" stroke="none">
<path d="M4953 10048 c27 -814 358 -1478 924 -1851 424 -280 1010 -413 1638
-374 290 18 636 15 770 -6 380 -62 640 -181 846 -386 171 -172 261 -344 321
-616 19 -87 22 -131 22 -340 1 -263 -15 -402 -75 -650 l-28 -120 54 -110 c272
-548 840 -767 1555 -600 112 26 302 87 410 130 154 62 380 105 549 105 236 0
437 -73 587 -213 115 -107 211 -257 259 -407 62 -193 311 -556 531 -774 287
-285 584 -415 865 -378 50 7 119 22 155 34 l64 21 0 3363 0 3364 -4727 0
-4726 0 6 -192z"/>
</g>
</svg>
